<mxfile host="app.diagrams.net" modified="2024-07-09T10:06:11.951Z" agent="Mozilla/5.0 (Windows NT 10.0; Win64; x64) AppleWebKit/537.36 (KHTML, like Gecko) Chrome/126.0.0.0 Safari/537.36" etag="kKRh5IpyYm-0sR6YhIzN" version="24.6.4" type="device">
  <diagram name="Page-1" id="QRR7dKM6gfLIpnscRe7I">
    <mxGraphModel dx="1318" dy="511" grid="1" gridSize="10" guides="1" tooltips="1" connect="1" arrows="1" fold="1" page="1" pageScale="1" pageWidth="850" pageHeight="1100" math="0" shadow="0">
      <root>
        <mxCell id="0" />
        <mxCell id="1" parent="0" />
        <mxCell id="4XPu3LD_VoiLFY8WtsJ0-8" style="edgeStyle=orthogonalEdgeStyle;rounded=0;orthogonalLoop=1;jettySize=auto;html=1;exitX=0.5;exitY=1;exitDx=0;exitDy=0;entryX=0.5;entryY=0;entryDx=0;entryDy=0;" edge="1" parent="1" source="4XPu3LD_VoiLFY8WtsJ0-2" target="4XPu3LD_VoiLFY8WtsJ0-3">
          <mxGeometry relative="1" as="geometry" />
        </mxCell>
        <mxCell id="4XPu3LD_VoiLFY8WtsJ0-2" value="Start&amp;nbsp;" style="ellipse;whiteSpace=wrap;html=1;" vertex="1" parent="1">
          <mxGeometry x="380" y="20" width="120" height="80" as="geometry" />
        </mxCell>
        <mxCell id="4XPu3LD_VoiLFY8WtsJ0-5" style="edgeStyle=orthogonalEdgeStyle;rounded=0;orthogonalLoop=1;jettySize=auto;html=1;exitX=0;exitY=0.5;exitDx=0;exitDy=0;" edge="1" parent="1" source="4XPu3LD_VoiLFY8WtsJ0-3" target="4XPu3LD_VoiLFY8WtsJ0-4">
          <mxGeometry relative="1" as="geometry" />
        </mxCell>
        <mxCell id="4XPu3LD_VoiLFY8WtsJ0-9" value="Yes" style="edgeLabel;html=1;align=center;verticalAlign=middle;resizable=0;points=[];" vertex="1" connectable="0" parent="4XPu3LD_VoiLFY8WtsJ0-5">
          <mxGeometry x="-0.787" y="-1" relative="1" as="geometry">
            <mxPoint as="offset" />
          </mxGeometry>
        </mxCell>
        <mxCell id="4XPu3LD_VoiLFY8WtsJ0-11" style="edgeStyle=orthogonalEdgeStyle;rounded=0;orthogonalLoop=1;jettySize=auto;html=1;exitX=1;exitY=0.5;exitDx=0;exitDy=0;entryX=0.5;entryY=0;entryDx=0;entryDy=0;" edge="1" parent="1" source="4XPu3LD_VoiLFY8WtsJ0-3" target="4XPu3LD_VoiLFY8WtsJ0-10">
          <mxGeometry relative="1" as="geometry" />
        </mxCell>
        <mxCell id="4XPu3LD_VoiLFY8WtsJ0-3" value="Is&amp;nbsp;&lt;div&gt;Sunday ?&lt;/div&gt;" style="rhombus;whiteSpace=wrap;html=1;" vertex="1" parent="1">
          <mxGeometry x="400" y="140" width="80" height="80" as="geometry" />
        </mxCell>
        <mxCell id="4XPu3LD_VoiLFY8WtsJ0-7" style="edgeStyle=orthogonalEdgeStyle;rounded=0;orthogonalLoop=1;jettySize=auto;html=1;exitX=0.5;exitY=1;exitDx=0;exitDy=0;entryX=0;entryY=0.5;entryDx=0;entryDy=0;" edge="1" parent="1" source="4XPu3LD_VoiLFY8WtsJ0-4" target="4XPu3LD_VoiLFY8WtsJ0-6">
          <mxGeometry relative="1" as="geometry" />
        </mxCell>
        <mxCell id="4XPu3LD_VoiLFY8WtsJ0-4" value="No Lecture, Enjoy." style="rounded=1;whiteSpace=wrap;html=1;" vertex="1" parent="1">
          <mxGeometry x="200" y="410" width="120" height="60" as="geometry" />
        </mxCell>
        <mxCell id="4XPu3LD_VoiLFY8WtsJ0-6" value="End" style="ellipse;whiteSpace=wrap;html=1;" vertex="1" parent="1">
          <mxGeometry x="400" y="590" width="120" height="80" as="geometry" />
        </mxCell>
        <mxCell id="4XPu3LD_VoiLFY8WtsJ0-13" style="edgeStyle=orthogonalEdgeStyle;rounded=0;orthogonalLoop=1;jettySize=auto;html=1;exitX=0;exitY=0.5;exitDx=0;exitDy=0;entryX=0.75;entryY=0;entryDx=0;entryDy=0;" edge="1" parent="1" source="4XPu3LD_VoiLFY8WtsJ0-10" target="4XPu3LD_VoiLFY8WtsJ0-4">
          <mxGeometry relative="1" as="geometry" />
        </mxCell>
        <mxCell id="4XPu3LD_VoiLFY8WtsJ0-14" value="Yes" style="edgeLabel;html=1;align=center;verticalAlign=middle;resizable=0;points=[];" vertex="1" connectable="0" parent="4XPu3LD_VoiLFY8WtsJ0-13">
          <mxGeometry x="-0.8039" relative="1" as="geometry">
            <mxPoint as="offset" />
          </mxGeometry>
        </mxCell>
        <mxCell id="4XPu3LD_VoiLFY8WtsJ0-20" style="edgeStyle=orthogonalEdgeStyle;rounded=0;orthogonalLoop=1;jettySize=auto;html=1;exitX=1;exitY=0.5;exitDx=0;exitDy=0;entryX=0.5;entryY=0;entryDx=0;entryDy=0;" edge="1" parent="1" source="4XPu3LD_VoiLFY8WtsJ0-10" target="4XPu3LD_VoiLFY8WtsJ0-15">
          <mxGeometry relative="1" as="geometry" />
        </mxCell>
        <mxCell id="4XPu3LD_VoiLFY8WtsJ0-10" value="Is&amp;nbsp;&lt;div&gt;Holiday ?&lt;/div&gt;" style="rhombus;whiteSpace=wrap;html=1;" vertex="1" parent="1">
          <mxGeometry x="510" y="220" width="80" height="80" as="geometry" />
        </mxCell>
        <mxCell id="4XPu3LD_VoiLFY8WtsJ0-18" style="edgeStyle=orthogonalEdgeStyle;rounded=0;orthogonalLoop=1;jettySize=auto;html=1;exitX=0;exitY=0.5;exitDx=0;exitDy=0;entryX=0.5;entryY=0;entryDx=0;entryDy=0;" edge="1" parent="1" source="4XPu3LD_VoiLFY8WtsJ0-15" target="4XPu3LD_VoiLFY8WtsJ0-16">
          <mxGeometry relative="1" as="geometry" />
        </mxCell>
        <mxCell id="4XPu3LD_VoiLFY8WtsJ0-23" value="Yes" style="edgeLabel;html=1;align=center;verticalAlign=middle;resizable=0;points=[];" vertex="1" connectable="0" parent="4XPu3LD_VoiLFY8WtsJ0-18">
          <mxGeometry x="-0.6328" y="-2" relative="1" as="geometry">
            <mxPoint as="offset" />
          </mxGeometry>
        </mxCell>
        <mxCell id="4XPu3LD_VoiLFY8WtsJ0-19" style="edgeStyle=orthogonalEdgeStyle;rounded=0;orthogonalLoop=1;jettySize=auto;html=1;exitX=1;exitY=0.5;exitDx=0;exitDy=0;entryX=0.75;entryY=0;entryDx=0;entryDy=0;" edge="1" parent="1" source="4XPu3LD_VoiLFY8WtsJ0-15" target="4XPu3LD_VoiLFY8WtsJ0-17">
          <mxGeometry relative="1" as="geometry" />
        </mxCell>
        <mxCell id="4XPu3LD_VoiLFY8WtsJ0-24" value="No" style="edgeLabel;html=1;align=center;verticalAlign=middle;resizable=0;points=[];" vertex="1" connectable="0" parent="4XPu3LD_VoiLFY8WtsJ0-19">
          <mxGeometry x="-0.6063" relative="1" as="geometry">
            <mxPoint as="offset" />
          </mxGeometry>
        </mxCell>
        <mxCell id="4XPu3LD_VoiLFY8WtsJ0-15" value="Is&amp;nbsp;&lt;div&gt;TTS ?&lt;/div&gt;" style="rhombus;whiteSpace=wrap;html=1;" vertex="1" parent="1">
          <mxGeometry x="610" y="300" width="80" height="80" as="geometry" />
        </mxCell>
        <mxCell id="4XPu3LD_VoiLFY8WtsJ0-21" style="edgeStyle=orthogonalEdgeStyle;rounded=0;orthogonalLoop=1;jettySize=auto;html=1;" edge="1" parent="1" source="4XPu3LD_VoiLFY8WtsJ0-16" target="4XPu3LD_VoiLFY8WtsJ0-6">
          <mxGeometry relative="1" as="geometry" />
        </mxCell>
        <mxCell id="4XPu3LD_VoiLFY8WtsJ0-16" value="Lecture" style="rounded=1;whiteSpace=wrap;html=1;" vertex="1" parent="1">
          <mxGeometry x="425" y="410" width="120" height="60" as="geometry" />
        </mxCell>
        <mxCell id="4XPu3LD_VoiLFY8WtsJ0-22" style="edgeStyle=orthogonalEdgeStyle;rounded=0;orthogonalLoop=1;jettySize=auto;html=1;entryX=1;entryY=0.5;entryDx=0;entryDy=0;" edge="1" parent="1" source="4XPu3LD_VoiLFY8WtsJ0-17" target="4XPu3LD_VoiLFY8WtsJ0-6">
          <mxGeometry relative="1" as="geometry" />
        </mxCell>
        <mxCell id="4XPu3LD_VoiLFY8WtsJ0-17" value="Lab" style="rounded=1;whiteSpace=wrap;html=1;" vertex="1" parent="1">
          <mxGeometry x="660" y="410" width="120" height="60" as="geometry" />
        </mxCell>
      </root>
    </mxGraphModel>
  </diagram>
</mxfile>
